<svg width="40" height="40" viewBox="0 0 40 40" fill="none" xmlns="http://www.w3.org/2000/svg">
<path d="M20.0001 0.799988C9.39409 0.799988 0.798096 9.39599 0.798096 20C0.797833 22.5217 1.29433 25.0188 2.25923 27.3486C3.22412 29.6784 4.63852 31.7953 6.42165 33.5784C8.20477 35.3616 10.3217 36.776 12.6515 37.7409C14.9813 38.7058 17.4784 39.2023 20.0001 39.202C30.6021 39.202 39.2001 30.606 39.2001 20C39.2001 9.39599 30.6021 0.799988 20.0001 0.799988ZM19.9981 35.2C18.002 35.2 16.0255 34.8068 14.1813 34.043C12.3372 33.2791 10.6615 32.1595 9.25007 30.748C7.83862 29.3366 6.719 27.6609 5.95513 25.8168C5.19125 23.9726 4.7981 21.9961 4.7981 20C4.7981 18.0039 5.19125 16.0273 5.95513 14.1832C6.719 12.3391 7.83862 10.6634 9.25007 9.25197C10.6615 7.84052 12.3372 6.72089 14.1813 5.95702C16.0255 5.19315 18.002 4.79999 19.9981 4.79999C21.9942 4.79999 23.9707 5.19315 25.8149 5.95702C27.659 6.72089 29.3347 7.84052 30.7461 9.25197C32.1576 10.6634 33.2772 12.3391 34.0411 14.1832C34.8049 16.0273 35.1981 18.0039 35.1981 20C35.1981 21.9961 34.8049 23.9726 34.0411 25.8168C33.2772 27.6609 32.1576 29.3366 30.7461 30.748C29.3347 32.1595 27.659 33.2791 25.8149 34.043C23.9707 34.8068 21.9942 35.2 19.9981 35.2ZM20.0001 11L11.0001 20L20.0001 29V24H28.0001V16H20.0001V11Z" fill="black"/>
</svg>
