<svg width="173" height="36" viewBox="0 0 173 36" fill="none" xmlns="http://www.w3.org/2000/svg">
<g filter="url(#filter0_d_182_43)">
<path d="M4.28516 27V1.40625H13.25C16.3555 1.40625 18.7109 2.00391 20.3164 3.19922C21.9219 4.38281 22.7246 6.12305 22.7246 8.41992C22.7246 9.67383 22.4023 10.7812 21.7578 11.7422C21.1133 12.6914 20.2168 13.3887 19.0684 13.834C20.3809 14.1621 21.4121 14.8242 22.1621 15.8203C22.9238 16.8164 23.3047 18.0352 23.3047 19.4766C23.3047 21.9375 22.5195 23.8008 20.9492 25.0664C19.3789 26.332 17.1406 26.9766 14.2344 27H4.28516ZM9.55859 15.8555V22.7637H14.0762C15.3184 22.7637 16.2852 22.4707 16.9766 21.8848C17.6797 21.2871 18.0312 20.4668 18.0312 19.4238C18.0312 17.0801 16.8184 15.8906 14.3926 15.8555H9.55859ZM9.55859 12.1289H13.4609C16.1211 12.082 17.4512 11.0215 17.4512 8.94727C17.4512 7.78711 17.1113 6.95508 16.4316 6.45117C15.7637 5.93555 14.7031 5.67773 13.25 5.67773H9.55859V12.1289ZM46.6484 1.40625V18.2637C46.6484 21.0645 45.7695 23.2793 44.0117 24.9082C42.2656 26.5371 39.875 27.3516 36.8398 27.3516C33.8516 27.3516 31.4785 26.5605 29.7207 24.9785C27.9629 23.3965 27.0664 21.2227 27.0312 18.457V1.40625H32.3047V18.2988C32.3047 19.9746 32.7031 21.1992 33.5 21.9727C34.3086 22.7344 35.4219 23.1152 36.8398 23.1152C39.8047 23.1152 41.3105 21.5566 41.3574 18.4395V1.40625H46.6484ZM64.2441 20.2852C64.2441 19.2891 63.8926 18.5273 63.1895 18C62.4863 17.4609 61.2207 16.8984 59.3926 16.3125C57.5645 15.7148 56.1172 15.1289 55.0508 14.5547C52.1445 12.9844 50.6914 10.8691 50.6914 8.20898C50.6914 6.82617 51.0781 5.5957 51.8516 4.51758C52.6367 3.42773 53.7559 2.57813 55.209 1.96875C56.6738 1.35937 58.3145 1.05469 60.1309 1.05469C61.959 1.05469 63.5879 1.38867 65.0176 2.05664C66.4473 2.71289 67.5547 3.64453 68.3398 4.85156C69.1367 6.05859 69.5352 7.42969 69.5352 8.96484H64.2617C64.2617 7.79297 63.8926 6.88477 63.1543 6.24023C62.416 5.58398 61.3789 5.25586 60.043 5.25586C58.7539 5.25586 57.752 5.53125 57.0371 6.08203C56.3223 6.62109 55.9648 7.33594 55.9648 8.22656C55.9648 9.05859 56.3809 9.75586 57.2129 10.3184C58.0566 10.8809 59.293 11.4082 60.9219 11.9004C63.9219 12.8027 66.1074 13.9219 67.4785 15.2578C68.8496 16.5938 69.5352 18.2578 69.5352 20.25C69.5352 22.4648 68.6973 24.2051 67.0215 25.4707C65.3457 26.7246 63.0898 27.3516 60.2539 27.3516C58.2852 27.3516 56.4922 26.9941 54.875 26.2793C53.2578 25.5527 52.0215 24.5625 51.166 23.3086C50.3223 22.0547 49.9004 20.6016 49.9004 18.9492H55.1914C55.1914 21.7734 56.8789 23.1855 60.2539 23.1855C61.5078 23.1855 62.4863 22.9336 63.1895 22.4297C63.8926 21.9141 64.2441 21.1992 64.2441 20.2852Z" fill="#FFFA84"/>
<path d="M80.6973 23.2559C81.6348 23.2559 82.3965 22.998 82.9824 22.4824C83.5684 21.9668 83.873 21.2812 83.8965 20.4258H88.6602C88.6484 21.7148 88.2969 22.8984 87.6055 23.9766C86.9141 25.043 85.9648 25.875 84.7578 26.4727C83.5625 27.0586 82.2383 27.3516 80.7852 27.3516C78.0664 27.3516 75.9219 26.4902 74.3516 24.7676C72.7812 23.0332 71.9961 20.6426 71.9961 17.5957V17.2617C71.9961 14.332 72.7754 11.9941 74.334 10.248C75.8926 8.50195 78.0312 7.62891 80.75 7.62891C83.1289 7.62891 85.0332 8.30859 86.4629 9.66797C87.9043 11.0156 88.6367 12.8145 88.6602 15.0645H83.8965C83.873 14.0801 83.5684 13.2832 82.9824 12.6738C82.3965 12.0527 81.623 11.7422 80.6621 11.7422C79.4785 11.7422 78.582 12.1758 77.9727 13.043C77.375 13.8984 77.0762 15.293 77.0762 17.2266V17.7539C77.0762 19.7109 77.375 21.1172 77.9727 21.9727C78.5703 22.8281 79.4785 23.2559 80.6973 23.2559ZM102.582 27C102.348 26.543 102.178 25.9746 102.072 25.2949C100.842 26.666 99.2422 27.3516 97.2734 27.3516C95.4102 27.3516 93.8633 26.8125 92.6328 25.7344C91.4141 24.6562 90.8047 23.2969 90.8047 21.6562C90.8047 19.6406 91.5488 18.0938 93.0371 17.0156C94.5371 15.9375 96.6992 15.3926 99.5234 15.3809H101.861V14.291C101.861 13.4121 101.633 12.709 101.176 12.1816C100.73 11.6543 100.021 11.3906 99.0488 11.3906C98.1934 11.3906 97.5195 11.5957 97.0273 12.0059C96.5469 12.416 96.3066 12.9785 96.3066 13.6934H91.2266C91.2266 12.5918 91.5664 11.5723 92.2461 10.6348C92.9258 9.69727 93.8867 8.96484 95.1289 8.4375C96.3711 7.89844 97.7656 7.62891 99.3125 7.62891C101.656 7.62891 103.514 8.2207 104.885 9.4043C106.268 10.5762 106.959 12.2285 106.959 14.3613V22.6055C106.971 24.4102 107.223 25.7754 107.715 26.7012V27H102.582ZM98.3809 23.4668C99.1309 23.4668 99.8223 23.3027 100.455 22.9746C101.088 22.6348 101.557 22.1836 101.861 21.6211V18.3516H99.9629C97.4199 18.3516 96.0664 19.2305 95.9023 20.9883L95.8848 21.2871C95.8848 21.9199 96.1074 22.4414 96.5527 22.8516C96.998 23.2617 97.6074 23.4668 98.3809 23.4668ZM115.537 7.98047L115.695 10.1777C117.055 8.47852 118.877 7.62891 121.162 7.62891C123.178 7.62891 124.678 8.2207 125.662 9.4043C126.646 10.5879 127.15 12.3574 127.174 14.7129V27H122.094V14.8359C122.094 13.7578 121.859 12.9785 121.391 12.498C120.922 12.0059 120.143 11.7598 119.053 11.7598C117.623 11.7598 116.551 12.3691 115.836 13.5879V27H110.756V7.98047H115.537ZM130.25 17.3496C130.25 14.3848 130.912 12.0234 132.236 10.2656C133.572 8.50781 135.395 7.62891 137.703 7.62891C139.555 7.62891 141.084 8.32031 142.291 9.70312V0H147.389V27H142.801L142.555 24.9785C141.289 26.5605 139.66 27.3516 137.668 27.3516C135.43 27.3516 133.631 26.4727 132.271 24.7148C130.924 22.9453 130.25 20.4902 130.25 17.3496ZM135.33 17.7188C135.33 19.5 135.641 20.8652 136.262 21.8145C136.883 22.7637 137.785 23.2383 138.969 23.2383C140.539 23.2383 141.646 22.5762 142.291 21.252V13.7461C141.658 12.4219 140.562 11.7598 139.004 11.7598C136.555 11.7598 135.33 13.7461 135.33 17.7188ZM150.535 17.3145C150.535 15.4277 150.898 13.7461 151.625 12.2695C152.352 10.793 153.395 9.65039 154.754 8.8418C156.125 8.0332 157.713 7.62891 159.518 7.62891C162.084 7.62891 164.176 8.41406 165.793 9.98438C167.422 11.5547 168.33 13.6875 168.518 16.3828L168.553 17.6836C168.553 20.6016 167.738 22.9453 166.109 24.7148C164.48 26.4727 162.295 27.3516 159.553 27.3516C156.811 27.3516 154.619 26.4727 152.979 24.7148C151.35 22.957 150.535 20.5664 150.535 17.543V17.3145ZM155.615 17.6836C155.615 19.4883 155.955 20.8711 156.635 21.832C157.314 22.7812 158.287 23.2559 159.553 23.2559C160.783 23.2559 161.744 22.7871 162.436 21.8496C163.127 20.9004 163.473 19.3887 163.473 17.3145C163.473 15.5449 163.127 14.1738 162.436 13.2012C161.744 12.2285 160.771 11.7422 159.518 11.7422C158.275 11.7422 157.314 12.2285 156.635 13.2012C155.955 14.1621 155.615 15.6562 155.615 17.6836Z" fill="#524E4E"/>
<path d="M4.28516 27H3.28516V28H4.28516V27ZM4.28516 1.40625V0.40625H3.28516V1.40625H4.28516ZM20.3164 3.19922L19.7192 4.00133L19.723 4.00413L20.3164 3.19922ZM21.7578 11.7422L22.5851 12.3039L22.5883 12.2992L21.7578 11.7422ZM19.0684 13.834L18.7068 12.9016L15.7704 14.0403L18.8258 14.8041L19.0684 13.834ZM22.1621 15.8203L21.3632 16.4218L21.3678 16.4278L22.1621 15.8203ZM14.2344 27V28L14.2424 28L14.2344 27ZM9.55859 15.8555V14.8555H8.55859V15.8555H9.55859ZM9.55859 22.7637H8.55859V23.7637H9.55859V22.7637ZM16.9766 21.8848L17.6231 22.6477L17.6242 22.6467L16.9766 21.8848ZM14.3926 15.8555L14.4071 14.8556L14.3998 14.8555H14.3926V15.8555ZM9.55859 12.1289H8.55859V13.1289H9.55859V12.1289ZM13.4609 12.1289V13.1289H13.4697L13.4786 13.1288L13.4609 12.1289ZM16.4316 6.45117L15.8206 7.24276L15.8283 7.2487L15.8361 7.25448L16.4316 6.45117ZM9.55859 5.67773V4.67773H8.55859V5.67773H9.55859ZM5.28516 27V1.40625H3.28516V27H5.28516ZM4.28516 2.40625H13.25V0.40625H4.28516V2.40625ZM13.25 2.40625C16.2515 2.40625 18.3581 2.98797 19.7192 4.00132L20.9136 2.39712C19.0637 1.01985 16.4594 0.40625 13.25 0.40625V2.40625ZM19.723 4.00413C21.0315 4.96881 21.7246 6.38571 21.7246 8.41992H23.7246C23.7246 5.86038 22.8122 3.79681 20.9098 2.39431L19.723 4.00413ZM21.7246 8.41992C21.7246 9.49282 21.4521 10.4028 20.9273 11.1852L22.5883 12.2992C23.3526 11.1597 23.7246 9.85484 23.7246 8.41992H21.7246ZM20.9305 11.1804C20.4085 11.9492 19.6806 12.524 18.7068 12.9016L19.4299 14.7663C20.753 14.2533 21.818 13.4337 22.5851 12.3039L20.9305 11.1804ZM18.8258 14.8041C19.9363 15.0818 20.763 15.6247 21.3632 16.4218L22.961 15.2188C22.0612 14.0238 20.8254 13.2425 19.3109 12.8638L18.8258 14.8041ZM21.3678 16.4278C21.9767 17.224 22.3047 18.2204 22.3047 19.4766H24.3047C24.3047 17.8499 23.871 16.4088 22.9565 15.2129L21.3678 16.4278ZM22.3047 19.4766C22.3047 21.7085 21.6046 23.2538 20.3217 24.2878L21.5767 25.845C23.4344 24.3478 24.3047 22.1665 24.3047 19.4766H22.3047ZM20.3217 24.2878C18.9898 25.3613 17.0037 25.9776 14.2263 26L14.2424 28C17.2776 27.9755 19.768 27.3028 21.5767 25.845L20.3217 24.2878ZM14.2344 26H4.28516V28H14.2344V26ZM8.55859 15.8555V22.7637H10.5586V15.8555H8.55859ZM9.55859 23.7637H14.0762V21.7637H9.55859V23.7637ZM14.0762 23.7637C15.4675 23.7637 16.6939 23.4351 17.6231 22.6477L16.33 21.1219C15.8764 21.5063 15.1692 21.7637 14.0762 21.7637V23.7637ZM17.6242 22.6467C18.5815 21.833 19.0312 20.7174 19.0312 19.4238H17.0312C17.0312 20.2162 16.7779 20.7412 16.3289 21.1228L17.6242 22.6467ZM19.0312 19.4238C19.0312 18.0877 18.6835 16.905 17.8218 16.06C16.9662 15.2209 15.7668 14.8753 14.4071 14.8556L14.3781 16.8554C15.4441 16.8708 16.0641 17.1375 16.4214 17.4879C16.7726 17.8323 17.0312 18.4162 17.0312 19.4238H19.0312ZM14.3926 14.8555H9.55859V16.8555H14.3926V14.8555ZM9.55859 13.1289H13.4609V11.1289H9.55859V13.1289ZM13.4786 13.1288C14.9125 13.1035 16.1665 12.8062 17.077 12.0802C18.0323 11.3185 18.4512 10.2149 18.4512 8.94727H16.4512C16.4512 9.75385 16.205 10.2176 15.8302 10.5165C15.4106 10.851 14.6695 11.1075 13.4433 11.1291L13.4786 13.1288ZM18.4512 8.94727C18.4512 7.59685 18.0482 6.40477 17.0272 5.64786L15.8361 7.25448C16.1745 7.50538 16.4512 7.97737 16.4512 8.94727H18.4512ZM17.0427 5.65958C16.1125 4.94154 14.7805 4.67773 13.25 4.67773V6.67773C14.6257 6.67773 15.4148 6.92955 15.8206 7.24276L17.0427 5.65958ZM13.25 4.67773H9.55859V6.67773H13.25V4.67773ZM8.55859 5.67773V12.1289H10.5586V5.67773H8.55859ZM46.6484 1.40625H47.6484V0.40625H46.6484V1.40625ZM44.0117 24.9082L43.332 24.1747L43.3296 24.177L44.0117 24.9082ZM27.0312 18.457H26.0312L26.0313 18.4697L27.0312 18.457ZM27.0312 1.40625V0.40625H26.0312V1.40625H27.0312ZM32.3047 1.40625H33.3047V0.40625H32.3047V1.40625ZM33.5 21.9727L32.8035 22.6902L32.8089 22.6954L32.8143 22.7005L33.5 21.9727ZM41.3574 18.4395L42.3573 18.4545L42.3574 18.447V18.4395H41.3574ZM41.3574 1.40625V0.40625H40.3574V1.40625H41.3574ZM45.6484 1.40625V18.2637H47.6484V1.40625H45.6484ZM45.6484 18.2637C45.6484 20.8373 44.8508 22.7673 43.332 24.1747L44.6914 25.6417C46.6883 23.7913 47.6484 21.2916 47.6484 18.2637H45.6484ZM43.3296 24.177C41.8149 25.59 39.6931 26.3516 36.8398 26.3516V28.3516C40.0569 28.3516 42.7163 27.4842 44.6939 25.6394L43.3296 24.177ZM36.8398 26.3516C34.0311 26.3516 31.9192 25.6118 30.3897 24.2352L29.0517 25.7218C31.0378 27.5093 33.672 28.3516 36.8398 28.3516V26.3516ZM30.3897 24.2352C28.8748 22.8719 28.0634 20.9826 28.0312 18.4443L26.0313 18.4697C26.0694 21.4627 27.051 23.9211 29.0517 25.7218L30.3897 24.2352ZM28.0312 18.457V1.40625H26.0312V18.457H28.0312ZM27.0312 2.40625H32.3047V0.40625H27.0312V2.40625ZM31.3047 1.40625V18.2988H33.3047V1.40625H31.3047ZM31.3047 18.2988C31.3047 20.1087 31.7328 21.651 32.8035 22.6902L34.1965 21.2551C33.6735 20.7474 33.3047 19.8405 33.3047 18.2988H31.3047ZM32.8143 22.7005C33.8556 23.6815 35.2402 24.1152 36.8398 24.1152V22.1152C35.6035 22.1152 34.7615 21.7872 34.1857 21.2448L32.8143 22.7005ZM36.8398 24.1152C38.4907 24.1152 39.9096 23.6787 40.912 22.6411C41.9058 21.6125 42.3317 20.1563 42.3573 18.4545L40.3575 18.4244C40.3363 19.8398 39.9858 20.7214 39.4737 21.2515C38.9703 21.7725 38.1538 22.1152 36.8398 22.1152V24.1152ZM42.3574 18.4395V1.40625H40.3574V18.4395H42.3574ZM41.3574 2.40625H46.6484V0.40625H41.3574V2.40625ZM63.1895 18L62.581 18.7937L62.5895 18.8L63.1895 18ZM59.3926 16.3125L59.0818 17.263L59.0874 17.2648L59.3926 16.3125ZM55.0508 14.5547L54.5754 15.4345L54.5767 15.4352L55.0508 14.5547ZM51.8516 4.51758L51.0402 3.93304L51.039 3.93467L51.8516 4.51758ZM55.209 1.96875L54.8249 1.04545L54.8223 1.04656L55.209 1.96875ZM65.0176 2.05664L64.5943 2.96265L64.6004 2.96547L65.0176 2.05664ZM68.3398 4.85156L67.5016 5.39685L67.5053 5.40252L68.3398 4.85156ZM69.5352 8.96484V9.96484H70.5352V8.96484H69.5352ZM64.2617 8.96484H63.2617V9.96484H64.2617V8.96484ZM63.1543 6.24023L62.4899 6.98767L62.4966 6.99355L63.1543 6.24023ZM57.0371 6.08203L57.6392 6.8805L57.6474 6.87417L57.0371 6.08203ZM57.2129 10.3184L56.6528 11.1468L56.6582 11.1504L57.2129 10.3184ZM60.9219 11.9004L60.6326 12.8576L60.6338 12.858L60.9219 11.9004ZM67.0215 25.4707L67.6206 26.2714L67.6242 26.2687L67.0215 25.4707ZM54.875 26.2793L54.4652 27.1915L54.4707 27.1939L54.875 26.2793ZM51.166 23.3086L50.3363 23.8669L50.34 23.8722L51.166 23.3086ZM49.9004 18.9492V17.9492H48.9004V18.9492H49.9004ZM55.1914 18.9492H56.1914V17.9492H55.1914V18.9492ZM63.1895 22.4297L63.772 23.2426L63.7808 23.2361L63.1895 22.4297ZM65.2441 20.2852C65.2441 19.0223 64.7805 17.9433 63.7895 17.2L62.5895 18.8C63.0047 19.1114 63.2441 19.5558 63.2441 20.2852H65.2441ZM63.7979 17.2064C62.9476 16.5545 61.5379 15.95 59.6978 15.3602L59.0874 17.2648C60.9035 17.8469 62.0251 18.3674 62.581 18.7936L63.7979 17.2064ZM59.7033 15.362C57.9029 14.7734 56.5178 14.2089 55.5249 13.6742L54.5767 15.4352C55.7165 16.0489 57.226 16.6563 59.0818 17.263L59.7033 15.362ZM55.5261 13.6749C52.8507 12.2293 51.6914 10.4075 51.6914 8.20898H49.6914C49.6914 11.3308 51.4383 13.7394 54.5754 15.4345L55.5261 13.6749ZM51.6914 8.20898C51.6914 7.0259 52.0179 6.00121 52.6641 5.10049L51.039 3.93467C50.1383 5.1902 49.6914 6.62644 49.6914 8.20898H51.6914ZM52.6629 5.10211C53.3229 4.18602 54.2827 3.44155 55.5957 2.89094L54.8223 1.04656C53.229 1.7147 51.9505 2.66945 51.0402 3.93304L52.6629 5.10211ZM55.5931 2.89205C56.9198 2.34011 58.4273 2.05469 60.1309 2.05469V0.0546875C58.2016 0.0546875 56.4278 0.378637 54.8249 1.04545L55.5931 2.89205ZM60.1309 2.05469C61.8358 2.05469 63.3166 2.36566 64.5943 2.96263L65.4409 1.15065C63.8592 0.411682 62.0822 0.0546875 60.1309 0.0546875V2.05469ZM64.6004 2.96547C65.8747 3.55038 66.8291 4.36294 67.5016 5.39684L69.1781 4.30629C68.2803 2.92612 67.0199 1.8754 65.4347 1.14781L64.6004 2.96547ZM67.5053 5.40252C68.1875 6.43583 68.5352 7.61294 68.5352 8.96484H70.5352C70.5352 7.24643 70.0859 5.68136 69.1744 4.30061L67.5053 5.40252ZM69.5352 7.96484H64.2617V9.96484H69.5352V7.96484ZM65.2617 8.96484C65.2617 7.56614 64.8104 6.3586 63.812 5.48692L62.4966 6.99355C62.9747 7.41093 63.2617 8.0198 63.2617 8.96484H65.2617ZM63.8187 5.49283C62.8412 4.624 61.5366 4.25586 60.043 4.25586V6.25586C61.2212 6.25586 61.9908 6.54397 62.4899 6.98764L63.8187 5.49283ZM60.043 4.25586C58.625 4.25586 57.3776 4.55732 56.4268 5.28989L57.6474 6.87417C58.1264 6.50518 58.8828 6.25586 60.043 6.25586V4.25586ZM56.435 5.2836C55.4712 6.01045 54.9648 7.02015 54.9648 8.22656H56.9648C56.9648 7.65172 57.1734 7.23174 57.6392 6.88046L56.435 5.2836ZM54.9648 8.22656C54.9648 9.46226 55.6108 10.4424 56.6528 11.1468L57.773 9.48992C57.1509 9.06935 56.9648 8.65493 56.9648 8.22656H54.9648ZM56.6582 11.1504C57.6206 11.792 58.9641 12.3535 60.6326 12.8576L61.2111 10.9431C59.6218 10.4629 58.4927 9.96973 57.7676 9.48631L56.6582 11.1504ZM60.6338 12.858C63.5667 13.7402 65.5758 14.8001 66.7806 15.974L68.1764 14.5416C66.6391 13.0437 64.277 11.8653 61.2099 10.9428L60.6338 12.858ZM66.7806 15.974C67.9499 17.1133 68.5352 18.5152 68.5352 20.25H70.5352C70.5352 18.0004 69.7493 16.0742 68.1764 14.5416L66.7806 15.974ZM68.5352 20.25C68.5352 22.1713 67.8288 23.6078 66.4188 24.6727L67.6242 26.2687C69.5657 24.8023 70.5352 22.7584 70.5352 20.25H68.5352ZM66.4224 24.67C64.9716 25.7555 62.9495 26.3516 60.2539 26.3516V28.3516C63.2301 28.3516 65.7198 27.6937 67.6206 26.2714L66.4224 24.67ZM60.2539 26.3516C58.4085 26.3516 56.7554 26.0171 55.2793 25.3647L54.4707 27.1939C56.229 27.9711 58.1618 28.3516 60.2539 28.3516V26.3516ZM55.2848 25.3671C53.8072 24.7033 52.7272 23.8225 51.9921 22.745L50.34 23.8722C51.3158 25.3025 52.7084 26.4022 54.4652 27.1915L55.2848 25.3671ZM51.9957 22.7503C51.2733 21.6768 50.9004 20.422 50.9004 18.9492H48.9004C48.9004 20.7811 49.3712 22.4326 50.3364 23.8669L51.9957 22.7503ZM49.9004 19.9492H55.1914V17.9492H49.9004V19.9492ZM54.1914 18.9492C54.1914 20.5669 54.6832 21.946 55.8153 22.8934C56.9132 23.8122 58.4514 24.1855 60.2539 24.1855V22.1855C58.6814 22.1855 57.6883 21.8529 57.0988 21.3596C56.5434 20.8948 56.1914 20.1558 56.1914 18.9492H54.1914ZM60.2539 24.1855C61.6268 24.1855 62.8381 23.9118 63.772 23.2425L62.6069 21.6169C62.1345 21.9554 61.3889 22.1855 60.2539 22.1855V24.1855ZM63.7808 23.2361C64.7551 22.5217 65.2441 21.4997 65.2441 20.2852H63.2441C63.2441 20.8988 63.0301 21.3065 62.5981 21.6233L63.7808 23.2361ZM83.8965 20.4258V19.4258H82.9235L82.8969 20.3984L83.8965 20.4258ZM88.6602 20.4258L89.6601 20.4349L89.6693 19.4258H88.6602V20.4258ZM87.6055 23.9766L88.4446 24.5206L88.4472 24.5164L87.6055 23.9766ZM84.7578 26.4727L85.198 27.3706L85.2015 27.3688L84.7578 26.4727ZM74.3516 24.7676L73.6103 25.4388L73.6125 25.4413L74.3516 24.7676ZM86.4629 9.66797L85.7738 10.3927L85.7799 10.3984L86.4629 9.66797ZM88.6602 15.0645V16.0645H89.6706L89.6601 15.054L88.6602 15.0645ZM83.8965 15.0645L82.8968 15.0883L82.92 16.0645H83.8965V15.0645ZM82.9824 12.6738L82.255 13.3601L82.2616 13.3669L82.9824 12.6738ZM77.9727 13.043L77.1545 12.468L77.1529 12.4703L77.9727 13.043ZM80.6973 24.2559C81.8266 24.2559 82.8394 23.9404 83.6431 23.2331L82.3218 21.7317C81.9536 22.0557 81.4429 22.2559 80.6973 22.2559V24.2559ZM83.6431 23.2331C84.4589 22.5152 84.8659 21.5566 84.8961 20.4532L82.8969 20.3984C82.8802 21.0059 82.6778 21.4184 82.3218 21.7317L83.6431 23.2331ZM83.8965 21.4258H88.6602V19.4258H83.8965V21.4258ZM87.6602 20.4167C87.6502 21.5188 87.3528 22.5182 86.7637 23.4367L88.4472 24.5164C89.241 23.2787 89.6467 21.9109 89.6601 20.4349L87.6602 20.4167ZM86.7664 23.4325C86.1786 24.3391 85.3701 25.0536 84.3141 25.5765L85.2015 27.3688C86.5596 26.6964 87.6495 25.7469 88.4445 24.5206L86.7664 23.4325ZM84.3177 25.5747C83.2716 26.0875 82.0999 26.3516 80.7852 26.3516V28.3516C82.3767 28.3516 83.8534 28.0297 85.198 27.3706L84.3177 25.5747ZM80.7852 26.3516C78.2964 26.3516 76.4394 25.5736 75.0906 24.0939L73.6125 25.4413C75.4043 27.4069 77.8364 28.3516 80.7852 28.3516V26.3516ZM75.0929 24.0964C73.7343 22.5959 72.9961 20.4715 72.9961 17.5957H70.9961C70.9961 20.8137 71.8282 23.4705 73.6103 25.4388L75.0929 24.0964ZM72.9961 17.5957V17.2617H70.9961V17.5957H72.9961ZM72.9961 17.2617C72.9961 14.5135 73.7232 12.434 75.08 10.914L73.588 9.58213C71.8276 11.5543 70.9961 14.1506 70.9961 17.2617H72.9961ZM75.08 10.914C76.4175 9.41553 78.2655 8.62891 80.75 8.62891V6.62891C77.797 6.62891 75.3676 7.58838 73.588 9.58213L75.08 10.914ZM80.75 8.62891C82.9284 8.62891 84.567 9.24518 85.7738 10.3927L87.152 8.94327C85.4994 7.37201 83.3294 6.62891 80.75 6.62891V8.62891ZM85.7799 10.3984C86.993 11.5326 87.6392 13.0561 87.6602 15.0749L89.6601 15.054C89.6343 12.5728 88.8156 10.4986 87.1458 8.93751L85.7799 10.3984ZM88.6602 14.0645H83.8965V16.0645H88.6602V14.0645ZM84.8962 15.0406C84.8679 13.8501 84.4908 12.7998 83.7033 11.9807L82.2616 13.3669C82.6459 13.7666 82.8782 14.3101 82.8968 15.0883L84.8962 15.0406ZM83.7098 11.9876C82.9103 11.1402 81.8603 10.7422 80.6621 10.7422V12.7422C81.3858 12.7422 81.8826 12.9653 82.255 13.36L83.7098 11.9876ZM80.6621 10.7422C79.1971 10.7422 77.9751 11.3001 77.1545 12.468L78.7908 13.6179C79.1889 13.0514 79.76 12.7422 80.6621 12.7422V10.7422ZM77.1529 12.4703C76.3741 13.585 76.0762 15.2386 76.0762 17.2266H78.0762C78.0762 15.3474 78.3759 14.2119 78.7924 13.6157L77.1529 12.4703ZM76.0762 17.2266V17.7539H78.0762V17.2266H76.0762ZM76.0762 17.7539C76.0762 19.7622 76.3732 21.4293 77.1529 22.5454L78.7924 21.3999C78.3768 20.8051 78.0762 19.6596 78.0762 17.7539H76.0762ZM77.1529 22.5454C77.971 23.7164 79.2149 24.2559 80.6973 24.2559V22.2559C79.7422 22.2559 79.1696 21.9399 78.7924 21.3999L77.1529 22.5454ZM102.582 27L101.692 27.4563L101.971 28H102.582V27ZM102.072 25.2949L103.06 25.1416L102.737 23.057L101.328 24.627L102.072 25.2949ZM92.6328 25.7344L91.9702 26.4834L91.9738 26.4865L92.6328 25.7344ZM93.0371 17.0156L92.4535 16.2036L92.4505 16.2058L93.0371 17.0156ZM99.5234 15.3809V14.3808L99.5193 14.3809L99.5234 15.3809ZM101.861 15.3809V16.3809H102.861V15.3809H101.861ZM101.176 12.1816L100.412 12.8269L100.42 12.8366L101.176 12.1816ZM97.0273 12.0059L96.3871 11.2376L96.3781 11.2453L97.0273 12.0059ZM96.3066 13.6934V14.6934H97.3066V13.6934H96.3066ZM91.2266 13.6934H90.2266V14.6934H91.2266V13.6934ZM95.1289 8.4375L95.5197 9.35802L95.527 9.35485L95.1289 8.4375ZM104.885 9.4043L104.231 10.1613L104.238 10.1672L104.885 9.4043ZM106.959 22.6055H105.959L105.959 22.612L106.959 22.6055ZM107.715 26.7012H108.715V26.4519L108.598 26.2317L107.715 26.7012ZM107.715 27V28H108.715V27H107.715ZM100.455 22.9746L100.915 23.8624L100.922 23.859L100.928 23.8556L100.455 22.9746ZM101.861 21.6211L102.741 22.0974L102.861 21.8745V21.6211H101.861ZM101.861 18.3516H102.861V17.3516H101.861V18.3516ZM95.9023 20.9883L94.9067 20.8954L94.9051 20.9124L94.9041 20.9296L95.9023 20.9883ZM95.8848 21.2871L94.8865 21.2284L94.8848 21.2577V21.2871H95.8848ZM103.472 26.5437C103.3 26.2078 103.155 25.7491 103.06 25.1416L101.084 25.4483C101.201 26.2001 101.396 26.8781 101.692 27.4563L103.472 26.5437ZM101.328 24.627C100.301 25.7709 98.9802 26.3516 97.2734 26.3516V28.3516C99.5042 28.3516 101.382 27.5611 102.817 25.9628L101.328 24.627ZM97.2734 26.3516C95.6167 26.3516 94.3146 25.8784 93.2918 24.9822L91.9738 26.4865C93.4119 27.7466 95.2036 28.3516 97.2734 28.3516V26.3516ZM93.2954 24.9854C92.2932 24.0989 91.8047 23.0131 91.8047 21.6562H89.8047C89.8047 23.5806 90.5349 25.2136 91.9702 26.4834L93.2954 24.9854ZM91.8047 21.6562C91.8047 19.9251 92.423 18.6953 93.6238 17.8255L92.4505 16.2058C90.6746 17.4922 89.8047 19.3561 89.8047 21.6562H91.8047ZM93.6207 17.8276C94.8839 16.9197 96.8082 16.3921 99.5276 16.3808L99.5193 14.3809C96.5902 14.393 94.1903 14.9553 92.4535 16.2036L93.6207 17.8276ZM99.5234 16.3809H101.861V14.3809H99.5234V16.3809ZM102.861 15.3809V14.291H100.861V15.3809H102.861ZM102.861 14.291C102.861 13.2359 102.584 12.2793 101.931 11.5267L100.42 12.8366C100.682 13.1387 100.861 13.5883 100.861 14.291H102.861ZM101.94 11.5365C101.236 10.7033 100.191 10.3906 99.0488 10.3906V12.3906C99.8524 12.3906 100.225 12.6053 100.412 12.8268L101.94 11.5365ZM99.0488 10.3906C98.0383 10.3906 97.1115 10.634 96.3872 11.2376L97.6675 12.7741C97.9275 12.5574 98.3484 12.3906 99.0488 12.3906V10.3906ZM96.3781 11.2453C95.6443 11.8717 95.3066 12.729 95.3066 13.6934H97.3066C97.3066 13.2281 97.4495 12.9603 97.6766 12.7664L96.3781 11.2453ZM96.3066 12.6934H91.2266V14.6934H96.3066V12.6934ZM92.2266 13.6934C92.2266 12.8138 92.493 11.9978 93.0557 11.2217L91.4365 10.0478C90.6398 11.1467 90.2266 12.3698 90.2266 13.6934H92.2266ZM93.0557 11.2217C93.6121 10.4543 94.4168 9.82621 95.5197 9.35799L94.7381 7.51701C93.3567 8.10348 92.2394 8.94026 91.4365 10.0478L93.0557 11.2217ZM95.527 9.35485C96.6269 8.87753 97.8832 8.62891 99.3125 8.62891V6.62891C97.6481 6.62891 96.1153 6.91934 94.7308 7.52015L95.527 9.35485ZM99.3125 8.62891C101.488 8.62891 103.09 9.17587 104.231 10.1613L105.538 8.64733C103.938 7.26554 101.824 6.62891 99.3125 6.62891V8.62891ZM104.238 10.1672C105.356 11.1148 105.959 12.4649 105.959 14.3613H107.959C107.959 11.9921 107.179 10.0375 105.531 8.6414L104.238 10.1672ZM105.959 14.3613V22.6055H107.959V14.3613H105.959ZM105.959 22.612C105.971 24.477 106.228 26.0338 106.832 27.1706L108.598 26.2317C108.218 25.517 107.97 24.3433 107.959 22.599L105.959 22.612ZM106.715 26.7012V27H108.715V26.7012H106.715ZM107.715 26H102.582V28H107.715V26ZM98.3809 24.4668C99.2825 24.4668 100.133 24.2681 100.915 23.8624L99.9948 22.0869C99.5116 22.3374 98.9793 22.4668 98.3809 22.4668V24.4668ZM100.928 23.8556C101.711 23.4351 102.332 22.8521 102.741 22.0974L100.982 21.1448C100.781 21.5151 100.465 21.8344 99.9819 22.0936L100.928 23.8556ZM102.861 21.6211V18.3516H100.861V21.6211H102.861ZM101.861 17.3516H99.9629V19.3516H101.861V17.3516ZM99.9629 17.3516C98.6002 17.3516 97.4033 17.5829 96.4959 18.1721C95.5363 18.7952 95.0141 19.7447 94.9067 20.8954L96.898 21.0812C96.9547 20.474 97.1912 20.1052 97.5851 19.8494C98.0313 19.5597 98.7826 19.3516 99.9629 19.3516V17.3516ZM94.9041 20.9296L94.8865 21.2284L96.883 21.3458L96.9006 21.047L94.9041 20.9296ZM94.8848 21.2871C94.8848 22.1851 95.2141 22.9781 95.8753 23.5871L97.2302 22.116C97.0007 21.9047 96.8848 21.6547 96.8848 21.2871H94.8848ZM95.8753 23.5871C96.5522 24.2106 97.4286 24.4668 98.3809 24.4668V22.4668C97.7863 22.4668 97.4439 22.3129 97.2302 22.116L95.8753 23.5871ZM115.537 7.98047L116.535 7.90865L116.468 6.98047H115.537V7.98047ZM115.695 10.1777L114.698 10.2495L114.881 12.7961L116.476 10.8024L115.695 10.1777ZM127.174 14.7129H128.174L128.174 14.7029L127.174 14.7129ZM127.174 27V28H128.174V27H127.174ZM122.094 27H121.094V28H122.094V27ZM121.391 12.498L120.666 13.1878L120.675 13.1964L121.391 12.498ZM115.836 13.5879L114.973 13.082L114.836 13.3163V13.5879H115.836ZM115.836 27V28H116.836V27H115.836ZM110.756 27H109.756V28H110.756V27ZM110.756 7.98047V6.98047H109.756V7.98047H110.756ZM114.54 8.05228L114.698 10.2495L116.693 10.1059L116.535 7.90865L114.54 8.05228ZM116.476 10.8024C117.635 9.35384 119.163 8.62891 121.162 8.62891V6.62891C118.591 6.62891 116.474 7.6032 114.914 9.55304L116.476 10.8024ZM121.162 8.62891C122.979 8.62891 124.154 9.15481 124.893 10.0437L126.431 8.76486C125.201 7.28659 123.376 6.62891 121.162 6.62891V8.62891ZM124.893 10.0437C125.67 10.9779 126.152 12.4813 126.174 14.7228L128.174 14.7029C128.149 12.2335 127.623 10.1979 126.431 8.76486L124.893 10.0437ZM126.174 14.7129V27H128.174V14.7129H126.174ZM127.174 26H122.094V28H127.174V26ZM123.094 27V14.8359H121.094V27H123.094ZM123.094 14.8359C123.094 13.6483 122.841 12.5528 122.106 11.7997L120.675 13.1964C120.878 13.4042 121.094 13.8674 121.094 14.8359H123.094ZM122.115 11.8084C121.37 11.0262 120.256 10.7598 119.053 10.7598V12.7598C120.029 12.7598 120.474 12.9855 120.666 13.1877L122.115 11.8084ZM119.053 10.7598C117.273 10.7598 115.87 11.5527 114.973 13.082L116.699 14.0938C117.231 13.1856 117.973 12.7598 119.053 12.7598V10.7598ZM114.836 13.5879V27H116.836V13.5879H114.836ZM115.836 26H110.756V28H115.836V26ZM111.756 27V7.98047H109.756V27H111.756ZM110.756 8.98047H115.537V6.98047H110.756V8.98047ZM132.236 10.2656L131.44 9.66054L131.438 9.66392L132.236 10.2656ZM142.291 9.70312L141.538 10.3607L143.291 12.3694V9.70312H142.291ZM142.291 0V-1H141.291V0H142.291ZM147.389 0H148.389V-1H147.389V0ZM147.389 27V28H148.389V27H147.389ZM142.801 27L141.808 27.1208L141.915 28H142.801V27ZM142.555 24.9785L143.547 24.8577L143.26 22.4962L141.774 24.3538L142.555 24.9785ZM132.271 24.7148L131.476 25.3207L131.48 25.3266L132.271 24.7148ZM142.291 21.252L143.19 21.6896L143.291 21.4824V21.252H142.291ZM142.291 13.7461H143.291V13.5194L143.193 13.3149L142.291 13.7461ZM131.25 17.3496C131.25 14.5272 131.88 12.4003 133.035 10.8673L131.438 9.66392C129.944 11.6465 129.25 14.2423 129.25 17.3496H131.25ZM133.032 10.8707C134.169 9.37467 135.69 8.62891 137.703 8.62891V6.62891C135.099 6.62891 132.975 7.64095 131.44 9.66054L133.032 10.8707ZM137.703 8.62891C139.269 8.62891 140.522 9.19765 141.538 10.3607L143.044 9.04552C141.646 7.44298 139.841 6.62891 137.703 6.62891V8.62891ZM143.291 9.70312V0H141.291V9.70312H143.291ZM142.291 1H147.389V-1H142.291V1ZM146.389 0V27H148.389V0H146.389ZM147.389 26H142.801V28H147.389V26ZM143.793 26.8792L143.547 24.8577L141.562 25.0994L141.808 27.1208L143.793 26.8792ZM141.774 24.3538C140.694 25.7033 139.35 26.3516 137.668 26.3516V28.3516C139.97 28.3516 141.884 27.4178 143.336 25.6032L141.774 24.3538ZM137.668 26.3516C135.737 26.3516 134.231 25.6139 133.063 24.1031L131.48 25.3266C133.031 27.3314 135.123 28.3516 137.668 28.3516V26.3516ZM133.067 24.109C131.897 22.5725 131.25 20.3592 131.25 17.3496H129.25C129.25 20.6213 129.951 23.3181 131.476 25.3207L133.067 24.109ZM134.33 17.7188C134.33 19.5925 134.653 21.1817 135.425 22.362L137.099 21.2669C136.629 20.5488 136.33 19.4075 136.33 17.7188H134.33ZM135.425 22.362C136.24 23.6079 137.465 24.2383 138.969 24.2383V22.2383C138.105 22.2383 137.525 21.9194 137.099 21.2669L135.425 22.362ZM138.969 24.2383C139.895 24.2383 140.751 24.042 141.49 23.6C142.233 23.1556 142.795 22.501 143.19 21.6896L141.392 20.8143C141.142 21.3271 140.828 21.6657 140.464 21.8834C140.096 22.1035 139.612 22.2383 138.969 22.2383V24.2383ZM143.291 21.252V13.7461H141.291V21.252H143.291ZM143.193 13.3149C142.805 12.5032 142.25 11.8467 141.512 11.4005C140.777 10.9565 139.926 10.7598 139.004 10.7598V12.7598C139.641 12.7598 140.116 12.8941 140.477 13.1122C140.835 13.3281 141.144 13.6648 141.389 14.1773L143.193 13.3149ZM139.004 10.7598C137.453 10.7598 136.202 11.4189 135.397 12.7247C134.641 13.9511 134.33 15.6621 134.33 17.7188H136.33C136.33 15.8027 136.631 14.5343 137.1 13.7743C137.519 13.0938 138.105 12.7598 139.004 12.7598V10.7598ZM154.754 8.8418L154.246 7.98042L154.243 7.98235L154.754 8.8418ZM165.793 9.98438L165.096 10.7018L165.099 10.7043L165.793 9.98438ZM168.518 16.3828L169.517 16.3558L169.517 16.3346L169.515 16.3134L168.518 16.3828ZM168.553 17.6836H169.553V17.6701L169.552 17.6566L168.553 17.6836ZM166.109 24.7148L166.843 25.3945L166.845 25.3921L166.109 24.7148ZM152.979 24.7148L152.245 25.3945L152.247 25.3972L152.979 24.7148ZM156.635 21.832L155.818 22.4095L155.822 22.4142L156.635 21.832ZM162.436 21.8496L163.24 22.4432L163.244 22.4384L162.436 21.8496ZM156.635 13.2012L157.451 13.7786L157.454 13.774L156.635 13.2012ZM151.535 17.3145C151.535 15.5583 151.873 14.0314 152.522 12.711L150.728 11.828C149.924 13.4608 149.535 15.2971 149.535 17.3145H151.535ZM152.522 12.711C153.167 11.4008 154.079 10.4067 155.265 9.70124L154.243 7.98235C152.71 8.89408 151.536 10.1851 150.728 11.828L152.522 12.711ZM155.262 9.70316C156.459 8.99697 157.867 8.62891 159.518 8.62891V6.62891C157.559 6.62891 155.791 7.06944 154.246 7.98043L155.262 9.70316ZM159.518 8.62891C161.863 8.62891 163.692 9.33818 165.096 10.7018L166.49 9.26695C164.66 7.48995 162.305 6.62891 159.518 6.62891V8.62891ZM165.099 10.7043C166.516 12.0706 167.346 13.9532 167.52 16.4522L169.515 16.3134C169.314 13.4218 168.328 11.0388 166.487 9.26444L165.099 10.7043ZM167.518 16.4098L167.553 17.7106L169.552 17.6566L169.517 16.3558L167.518 16.4098ZM167.553 17.6836C167.553 20.407 166.798 22.4903 165.374 24.0376L166.845 25.3921C168.679 23.4003 169.553 20.7961 169.553 17.6836H167.553ZM165.376 24.0351C163.964 25.5585 162.061 26.3516 159.553 26.3516V28.3516C162.529 28.3516 164.997 27.3869 166.843 25.3945L165.376 24.0351ZM159.553 26.3516C157.045 26.3516 155.134 25.5584 153.71 24.0325L152.247 25.3972C154.105 27.3869 156.576 28.3516 159.553 28.3516V26.3516ZM153.712 24.0351C152.296 22.5071 151.535 20.383 151.535 17.543H149.535C149.535 20.7498 150.403 23.407 152.245 25.3945L153.712 24.0351ZM151.535 17.543V17.3145H149.535V17.543H151.535ZM154.615 17.6836C154.615 19.5919 154.971 21.2114 155.818 22.4095L157.451 21.2546C156.939 20.5308 156.615 19.3847 156.615 17.6836H154.615ZM155.822 22.4142C156.707 23.6504 157.996 24.2559 159.553 24.2559V22.2559C158.578 22.2559 157.922 21.9121 157.448 21.2498L155.822 22.4142ZM159.553 24.2559C161.08 24.2559 162.348 23.6526 163.24 22.4432L161.631 21.2561C161.14 21.9216 160.487 22.2559 159.553 22.2559V24.2559ZM163.244 22.4384C164.124 21.2304 164.473 19.4569 164.473 17.3145H162.473C162.473 19.3204 162.13 20.5704 161.627 21.2608L163.244 22.4384ZM164.473 17.3145C164.473 15.4324 164.108 13.8275 163.251 12.6218L161.62 13.7806C162.146 14.5202 162.473 15.6574 162.473 17.3145H164.473ZM163.251 12.6218C162.361 11.3698 161.076 10.7422 159.518 10.7422V12.7422C160.467 12.7422 161.128 13.0872 161.62 13.7806L163.251 12.6218ZM159.518 10.7422C157.967 10.7422 156.692 11.3735 155.815 12.6284L157.454 13.774C157.937 13.0836 158.584 12.7422 159.518 12.7422V10.7422ZM155.818 12.6237C154.96 13.8368 154.615 15.5826 154.615 17.6836H156.615C156.615 15.7299 156.95 14.4874 157.451 13.7786L155.818 12.6237Z" fill="#C9C9C9"/>
</g>
<defs>
<filter id="filter0_d_182_43" x="0.285156" y="0" width="172.268" height="35.3516" filterUnits="userSpaceOnUse" color-interpolation-filters="sRGB">
<feFlood flood-opacity="0" result="BackgroundImageFix"/>
<feColorMatrix in="SourceAlpha" type="matrix" values="0 0 0 0 0 0 0 0 0 0 0 0 0 0 0 0 0 0 127 0" result="hardAlpha"/>
<feOffset dy="4"/>
<feGaussianBlur stdDeviation="2"/>
<feComposite in2="hardAlpha" operator="out"/>
<feColorMatrix type="matrix" values="0 0 0 0 0 0 0 0 0 0 0 0 0 0 0 0 0 0 0.25 0"/>
<feBlend mode="normal" in2="BackgroundImageFix" result="effect1_dropShadow_182_43"/>
<feBlend mode="normal" in="SourceGraphic" in2="effect1_dropShadow_182_43" result="shape"/>
</filter>
</defs>
</svg>
